<svg xmlns="http://www.w3.org/2000/svg" xmlns:xlink="http://www.w3.org/1999/xlink" width="2240" zoomAndPan="magnify" viewBox="0 0 1680 944.999993" height="1260" preserveAspectRatio="xMidYMid meet" version="1.0"><defs><g/><clipPath id="d702818ad7"><path d="M 1142 221 L 1585.265625 221 L 1585.265625 862 L 1142 862 Z M 1142 221 " clip-rule="nonzero"/></clipPath><clipPath id="0b0ed0a2ed"><path d="M 869.015625 83 L 1313 83 L 1313 724 L 869.015625 724 Z M 869.015625 83 " clip-rule="nonzero"/></clipPath></defs><g clip-path="url(#d702818ad7)"><path fill="#ffffff" d="M 1585.101562 859.371094 C 1564.5 826.539062 1543.875 793.707031 1523.234375 760.875 L 1492.257812 711.738281 L 1461.167969 662.589844 L 1398.886719 564.363281 L 1340.457031 472.351562 L 1415.6875 361.878906 L 1435.492188 332.835938 C 1442.121094 323.171875 1448.695312 313.476562 1455.367188 303.835938 L 1495.382812 246.023438 L 1511.5625 222.652344 L 1298.183594 221.222656 L 1293.6875 229.253906 C 1287.113281 241.027344 1280.683594 252.871094 1274.195312 264.683594 L 1269.339844 273.5625 L 1264.558594 282.484375 L 1254.933594 300.273438 L 1235.917969 335.972656 L 1226.222656 354.390625 C 1222.527344 348.777344 1218.828125 343.171875 1215.121094 337.578125 L 1203.78125 320.609375 L 1192.324219 303.695312 L 1180.867188 286.824219 L 1169.253906 270.027344 C 1161.472656 258.828125 1153.574219 247.710938 1145.566406 236.671875 C 1145.453125 236.484375 1145.3125 236.320312 1145.136719 236.191406 C 1144.960938 236.058594 1144.765625 235.960938 1144.554688 235.90625 C 1144.339844 235.851562 1144.125 235.839844 1143.910156 235.867188 C 1143.691406 235.898438 1143.488281 235.96875 1143.296875 236.082031 C 1143.105469 236.191406 1142.945312 236.335938 1142.8125 236.507812 C 1142.679688 236.683594 1142.585938 236.878906 1142.53125 237.089844 C 1142.472656 237.304688 1142.460938 237.519531 1142.492188 237.738281 C 1142.519531 237.953125 1142.589844 238.160156 1142.703125 238.347656 C 1148.515625 250.664062 1154.492188 262.910156 1160.632812 275.082031 L 1169.8125 293.328125 L 1179.121094 311.515625 L 1188.5 329.644531 L 1197.964844 347.71875 C 1204.339844 359.730469 1210.695312 371.761719 1217.15625 383.734375 L 1226.480469 401.003906 L 1237.578125 383.589844 C 1244.824219 372.207031 1251.898438 360.761719 1259.058594 349.335938 L 1280.339844 314.964844 L 1290.894531 297.707031 L 1296.164062 289.117188 L 1301.390625 280.523438 C 1306.675781 271.773438 1311.972656 263.039062 1317.214844 254.273438 C 1321.398438 254.273438 1448.96875 253.785156 1454.035156 253.6875 L 1432.113281 288.5 C 1425.882812 298.425781 1419.539062 308.261719 1413.25 318.160156 L 1394.320312 347.773438 L 1318.503906 466.191406 L 1314.550781 472.351562 L 1318.503906 478.078125 L 1384.238281 574.03125 L 1450.113281 669.878906 L 1483.050781 717.78125 L 1516.105469 765.628906 C 1538.121094 797.574219 1560.210938 829.441406 1582.378906 861.234375 C 1582.5 861.410156 1582.652344 861.558594 1582.832031 861.675781 C 1583.011719 861.796875 1583.203125 861.875 1583.414062 861.917969 C 1583.625 861.957031 1583.835938 861.957031 1584.046875 861.914062 C 1584.257812 861.875 1584.453125 861.792969 1584.632812 861.675781 C 1584.8125 861.554688 1584.960938 861.40625 1585.082031 861.230469 C 1585.203125 861.054688 1585.285156 860.859375 1585.328125 860.648438 C 1585.371094 860.4375 1585.375 860.226562 1585.335938 860.015625 C 1585.296875 859.804688 1585.21875 859.609375 1585.101562 859.429688 Z M 1585.101562 859.371094 " fill-opacity="1" fill-rule="nonzero"/></g><g clip-path="url(#0b0ed0a2ed)"><path fill="#ffffff" d="M 1294.015625 669.207031 L 1284.835938 650.945312 L 1275.542969 632.773438 L 1266.148438 614.644531 L 1256.679688 596.570312 C 1250.308594 584.539062 1243.964844 572.511719 1237.492188 560.554688 L 1228.167969 543.269531 L 1217.070312 560.695312 C 1209.824219 572.066406 1202.75 583.523438 1195.589844 594.953125 L 1174.292969 629.324219 L 1163.753906 646.578125 L 1158.46875 655.171875 L 1153.257812 663.765625 C 1147.976562 672.519531 1142.726562 681.269531 1137.503906 690.015625 C 1133.320312 690.015625 1005.75 690.515625 1000.667969 690.617188 L 1022.535156 655.800781 C 1028.777344 645.878906 1035.125 636.023438 1041.410156 626.144531 L 1060.34375 596.511719 L 1136.15625 478.09375 L 1140.09375 471.9375 L 1136.15625 466.207031 L 1070.425781 370.457031 L 1004.546875 274.808594 L 971.609375 227.007812 L 938.527344 179.261719 C 916.53125 147.410156 894.445312 115.617188 872.265625 83.882812 C 872.148438 83.710938 872 83.566406 871.824219 83.449219 C 871.652344 83.335938 871.460938 83.257812 871.253906 83.214844 C 871.050781 83.171875 870.84375 83.167969 870.636719 83.203125 C 870.429688 83.242188 870.238281 83.316406 870.0625 83.425781 C 869.878906 83.542969 869.726562 83.6875 869.601562 83.863281 C 869.476562 84.039062 869.390625 84.234375 869.34375 84.445312 C 869.296875 84.65625 869.289062 84.867188 869.324219 85.078125 C 869.359375 85.292969 869.433594 85.488281 869.546875 85.671875 C 890.167969 118.460938 910.789062 151.226562 931.410156 183.972656 L 962.386719 233.078125 L 993.476562 282.113281 L 1055.746094 380.152344 L 1114.1875 471.949219 L 1039.003906 582.421875 L 1019.199219 611.464844 C 1012.566406 621.117188 1006.007812 630.824219 999.320312 640.464844 L 959.308594 698.277344 L 943.140625 721.648438 L 1156.519531 723.082031 L 1161.03125 714.976562 C 1167.605469 703.203125 1174.050781 691.359375 1180.523438 679.546875 L 1185.378906 670.667969 L 1190.191406 661.773438 L 1199.8125 643.988281 L 1218.730469 608.328125 L 1228.425781 589.925781 L 1239.523438 606.710938 L 1250.867188 623.679688 L 1262.324219 640.605469 L 1273.78125 657.476562 L 1285.394531 674.277344 C 1293.167969 685.464844 1301.0625 696.578125 1309.082031 707.613281 C 1309.203125 707.777344 1309.347656 707.914062 1309.519531 708.023438 C 1309.6875 708.132812 1309.875 708.207031 1310.070312 708.246094 C 1310.269531 708.285156 1310.46875 708.289062 1310.667969 708.253906 C 1310.871094 708.222656 1311.054688 708.152344 1311.230469 708.046875 C 1311.40625 707.945312 1311.554688 707.8125 1311.679688 707.65625 C 1311.804688 707.496094 1311.898438 707.320312 1311.957031 707.125 C 1312.015625 706.929688 1312.039062 706.734375 1312.023438 706.53125 C 1312.011719 706.328125 1311.960938 706.136719 1311.875 705.953125 C 1306.109375 693.664062 1300.15625 681.417969 1294.015625 669.207031 Z M 1294.015625 669.207031 " fill-opacity="1" fill-rule="nonzero"/></g><g fill="#ffffff" fill-opacity="1"><g transform="translate(203.420884, 537.001928)"><g><path d="M 41.765625 2.875 C 33.441406 2.875 26.265625 0.820312 20.234375 -3.28125 C 14.210938 -7.382812 9.066406 -13.648438 4.796875 -22.078125 L 23.203125 -33.125 C 25.867188 -28.101562 28.75 -24.335938 31.84375 -21.828125 C 34.9375 -19.328125 38.398438 -18.078125 42.234375 -18.078125 C 44.691406 -18.078125 46.929688 -18.554688 48.953125 -19.515625 C 50.984375 -20.472656 52.582031 -21.78125 53.75 -23.4375 C 54.925781 -25.09375 55.515625 -26.878906 55.515625 -28.796875 C 55.515625 -30.828125 55.113281 -32.640625 54.3125 -34.234375 C 53.519531 -35.835938 52.375 -37.410156 50.875 -38.953125 C 49.382812 -40.503906 47.144531 -42.503906 44.15625 -44.953125 C 35.414062 -52.316406 28.859375 -58.078125 24.484375 -62.234375 C 20.109375 -66.398438 16.640625 -70.640625 14.078125 -74.953125 C 11.515625 -79.273438 10.234375 -83.890625 10.234375 -88.796875 C 10.234375 -94.128906 11.644531 -99.007812 14.46875 -103.4375 C 17.300781 -107.863281 21.144531 -111.359375 26 -113.921875 C 30.851562 -116.484375 36.109375 -117.765625 41.765625 -117.765625 C 48.484375 -117.765625 54.425781 -116.1875 59.59375 -113.03125 C 64.769531 -109.882812 69.921875 -105.328125 75.046875 -99.359375 L 59.203125 -85.921875 C 56.003906 -89.546875 52.988281 -92.265625 50.15625 -94.078125 C 47.332031 -95.890625 44.425781 -96.796875 41.4375 -96.796875 C 38.5625 -96.796875 36.21875 -96.046875 34.40625 -94.546875 C 32.59375 -93.054688 31.6875 -91.140625 31.6875 -88.796875 C 31.6875 -87.085938 32.242188 -85.429688 33.359375 -83.828125 C 34.484375 -82.234375 36.242188 -80.367188 38.640625 -78.234375 C 41.035156 -76.109375 44.957031 -72.859375 50.40625 -68.484375 C 56.90625 -63.253906 61.890625 -58.929688 65.359375 -55.515625 C 68.828125 -52.109375 71.625 -48.296875 73.75 -44.078125 C 75.882812 -39.867188 76.953125 -35.097656 76.953125 -29.765625 C 76.953125 -23.460938 75.457031 -17.832031 72.46875 -12.875 C 69.488281 -7.914062 65.332031 -4.050781 60 -1.28125 C 54.664062 1.488281 48.585938 2.875 41.765625 2.875 Z M 41.765625 2.875 "/></g></g></g><g fill="#ffffff" fill-opacity="1"><g transform="translate(366.138709, 537.001928)"><g><path d="M 22.234375 -93.4375 L 1.765625 -93.4375 L 1.765625 -114.875 L 65.28125 -114.875 L 65.28125 -93.4375 L 44.15625 -93.4375 L 44.15625 0 L 22.234375 0 Z M 22.234375 -93.4375 "/></g></g></g><g fill="#ffffff" fill-opacity="1"><g transform="translate(512.856934, 537.001928)"><g><path d="M 88 0 L 79.203125 -23.6875 L 31.515625 -23.6875 L 22.71875 0 L 0 0 L 44.3125 -114.875 L 66.40625 -114.875 L 110.71875 0 Z M 39.6875 -45.125 L 71.203125 -45.125 L 55.359375 -87.359375 Z M 39.6875 -45.125 "/></g></g></g><g fill="#ffffff" fill-opacity="1"><g transform="translate(703.09408, 537.001928)"><g><path d="M 127.359375 -58.40625 L 127.359375 -58.234375 C 127.359375 -45.972656 125.007812 -35.253906 120.3125 -26.078125 C 115.625 -16.898438 108.957031 -9.78125 100.3125 -4.71875 C 91.675781 0.34375 81.648438 2.875 70.234375 2.875 C 57.867188 2.875 46.960938 0.101562 37.515625 -5.4375 C 28.078125 -10.988281 20.796875 -18.398438 15.671875 -27.671875 C 10.554688 -36.953125 8 -47.085938 8 -58.078125 C 8 -68.847656 10.613281 -78.765625 15.84375 -87.828125 C 21.070312 -96.898438 28.378906 -104.128906 37.765625 -109.515625 C 47.148438 -114.898438 57.757812 -117.59375 69.59375 -117.59375 C 80.476562 -117.59375 89.835938 -115.804688 97.671875 -112.234375 C 105.515625 -108.660156 112.691406 -103.300781 119.203125 -96.15625 L 103.84375 -80.953125 C 98.820312 -86.179688 93.539062 -90.101562 88 -92.71875 C 82.457031 -95.332031 76.378906 -96.640625 69.765625 -96.640625 C 62.296875 -96.640625 55.519531 -94.878906 49.4375 -91.359375 C 43.351562 -87.835938 38.601562 -83.113281 35.1875 -77.1875 C 31.78125 -71.269531 30.078125 -64.796875 30.078125 -57.765625 C 30.078125 -50.503906 31.890625 -43.832031 35.515625 -37.75 C 39.140625 -31.675781 44.097656 -26.878906 50.390625 -23.359375 C 56.691406 -19.835938 63.628906 -18.078125 71.203125 -18.078125 C 78.773438 -18.078125 85.144531 -19.675781 90.3125 -22.875 C 95.488281 -26.082031 99.625 -30.988281 102.71875 -37.59375 L 69.4375 -37.59375 L 69.4375 -58.40625 Z M 127.359375 -58.40625 "/></g></g></g><g fill="#ffffff" fill-opacity="1"><g transform="translate(917.010652, 537.001928)"><g><path d="M 13.125 -114.875 L 75.84375 -114.875 L 75.84375 -93.59375 L 35.046875 -93.59375 L 35.046875 -72.640625 L 75.84375 -72.640625 L 75.84375 -51.84375 L 35.046875 -51.84375 L 35.046875 -21.4375 L 75.84375 -21.4375 L 75.84375 0 L 13.125 0 Z M 13.125 -114.875 "/></g></g></g></svg>